<?xml version="1.0" encoding="UTF-8"?>
<svg width="16px" height="18px" viewBox="0 0 16 18" version="1.1" xmlns="http://www.w3.org/2000/svg" xmlns:xlink="http://www.w3.org/1999/xlink">
    <!-- Generator: sketchtool 51.2 (57519) - http://www.bohemiancoding.com/sketch -->
    <title>ACABC782-E312-4008-9787-CEF5E924DDC4</title>
    <desc>Created with sketchtool.</desc>
    <defs></defs>
    <g id="InnerPages---Design" stroke="none" stroke-width="1" fill="none" fill-rule="evenodd">
        <g id="6-2-1-Merch-Single@2x" transform="translate(-1030.000000, -1114.000000)">
            <g id="Group-11" transform="translate(913.000000, 1112.000000)">
                <g id="Group">
                    <g id="Instagram" transform="translate(117.000000, 2.222222)">
                        <rect id="Rectangle-12" fill="#FFC500" x="0" y="0" width="16" height="17.7777778" rx="5"></rect>
                        <path d="M8,14.2222222 C5.3490332,14.2222222 3.2,11.8344076 3.2,8.88888889 C3.2,5.94337022 5.3490332,3.55555556 8,3.55555556 C10.6509668,3.55555556 12.8,5.94337022 12.8,8.88888889 C12.8,11.8344076 10.6509668,14.2222222 8,14.2222222 Z M8,12.4444444 C9.7673112,12.4444444 11.2,10.852568 11.2,8.88888889 C11.2,6.92520978 9.7673112,5.33333333 8,5.33333333 C6.2326888,5.33333333 4.8,6.92520978 4.8,8.88888889 C4.8,10.852568 6.2326888,12.4444444 8,12.4444444 Z" id="Oval-7" fill="#FFFFFF" fill-rule="nonzero"></path>
                        <ellipse id="Oval-6" fill="#FFFFFF" cx="12.8" cy="3.55555556" rx="1" ry="1"></ellipse>
                    </g>
                </g>
            </g>
        </g>
    </g>
</svg>