<?xml version="1.0" encoding="UTF-8"?>
<svg width="18px" height="20px" viewBox="0 0 18 20" version="1.1" xmlns="http://www.w3.org/2000/svg" xmlns:xlink="http://www.w3.org/1999/xlink">
	<g id="InnerPages---Design" stroke="none" stroke-width="1" fill="none" fill-rule="evenodd">
		<g id="6-2-1-Merch-Single@2x" transform="translate(-987.000000, -1112.000000)" fill="#FFC500" fill-rule="nonzero">
			<g id="Group-11" transform="translate(913.000000, 1112.000000)">
				<g id="Group">
					<g id="linkedin-(1)" transform="translate(74.000000, 0.000000)">
						<path d="M4.18993548,6.43419355 L0.576406452,6.43419355 C0.416032258,6.43419355 0.286083871,6.57864516 0.286083871,6.75677419 L0.286083871,19.6553548 C0.286083871,19.8335484 0.416032258,19.9779355 0.576406452,19.9779355 L4.18993548,19.9779355 C4.35030968,19.9779355 4.48025806,19.8335484 4.48025806,19.6553548 L4.48025806,6.75677419 C4.48025806,6.57864516 4.35030968,6.43419355 4.18993548,6.43419355 Z" id="XMLID_802_"></path>
						<path d="M2.38447742,0.022 C1.06966452,0.022 0,1.20922581 0,2.66851613 C0,4.12845161 1.06966452,5.31612903 2.38447742,5.31612903 C3.69824516,5.31612903 4.76703871,4.1283871 4.76703871,2.66851613 C4.76709677,1.20922581 3.69824516,0.022 2.38447742,0.022 Z" id="XMLID_803_"></path>
						<path d="M13.3812,6.1136129 C11.9298774,6.1136129 10.8570194,6.80683871 10.2062903,7.59451613 L10.2062903,6.75677419 C10.2062903,6.57864516 10.0763419,6.43419355 9.91596774,6.43419355 L6.45538065,6.43419355 C6.29500645,6.43419355 6.16505806,6.57864516 6.16505806,6.75677419 L6.16505806,19.6553548 C6.16505806,19.8335484 6.29500645,19.9779355 6.45538065,19.9779355 L10.0610129,19.9779355 C10.2213871,19.9779355 10.3513355,19.8335484 10.3513355,19.6553548 L10.3513355,13.2735484 C10.3513355,11.1230323 10.8770516,10.2852258 12.2262387,10.2852258 C13.6956194,10.2852258 13.8123871,11.6283226 13.8123871,13.3841935 L13.8123871,19.6554194 C13.8123871,19.8336129 13.9423355,19.978 14.1027097,19.978 L17.7096774,19.978 C17.8700516,19.978 18,19.8336129 18,19.6554194 L18,12.5803226 C18,9.38258065 17.4512323,6.1136129 13.3812,6.1136129 Z" id="XMLID_804_"></path>
					</g>
				</g>
			</g>
		</g>
	</g>
</svg>