<?xml version="1.0" encoding="UTF-8"?>
<svg width="25px" height="20px" viewBox="0 0 25 20" version="1.1" xmlns="http://www.w3.org/2000/svg" xmlns:xlink="http://www.w3.org/1999/xlink">
    <!-- Generator: Sketch 51.3 (57544) - http://www.bohemiancoding.com/sketch -->
    <title>photo-camera</title>
    <desc>Created with Sketch.</desc>
    <defs></defs>
    <g id="InnerPages---Design-3" stroke="none" stroke-width="1" fill="none" fill-rule="evenodd">
        <g id="3-1-2-Menu@2x" transform="translate(-323.000000, -1252.000000)" fill="#35251E" fill-rule="nonzero">
            <g id="photo-camera" transform="translate(323.000000, 1252.000000)">
                <path d="M12.5,7.5 C10.42875,7.5 8.75,9.1795 8.75,11.25 C8.75,13.32125 10.42875,15 12.5,15 C14.57075,15 16.25,13.32125 16.25,11.25 C16.25,9.1795 14.57075,7.5 12.5,7.5 Z M22.5,3.75 L19.5,3.75 C19.0875,3.75 18.643,3.43 18.51275,3.0385 L17.73725,0.71125 C17.6065,0.32 17.1625,0 16.75,0 L8.25,0 C7.8375,0 7.393,0.32 7.26275,0.7115 L6.48725,3.03875 C6.3565,3.43 5.9125,3.75 5.5,3.75 L2.5,3.75 C1.125,3.75 0,4.875 0,6.25 L0,17.5 C0,18.875 1.125,20 2.5,20 L22.5,20 C23.875,20 25,18.875 25,17.5 L25,6.25 C25,4.875 23.875,3.75 22.5,3.75 Z M12.5,17.5 C9.04825,17.5 6.25,14.70175 6.25,11.25 C6.25,7.7985 9.04825,5 12.5,5 C15.95125,5 18.75,7.7985 18.75,11.25 C18.75,14.70175 15.95125,17.5 12.5,17.5 Z M21.625,7.99825 C21.142,7.99825 20.75,7.60675 20.75,7.12325 C20.75,6.64025 21.142,6.24825 21.625,6.24825 C22.1085,6.24825 22.5,6.64025 22.5,7.12325 C22.5,7.60675 22.10825,7.99825 21.625,7.99825 Z" id="Shape"></path>
            </g>
        </g>
    </g>
</svg>