<?xml version="1.0" encoding="UTF-8"?>
<svg width="38px" height="38px" viewBox="0 0 38 38" version="1.1" xmlns="http://www.w3.org/2000/svg" xmlns:xlink="http://www.w3.org/1999/xlink">
    <!-- Generator: Sketch 51.3 (57544) - http://www.bohemiancoding.com/sketch -->
    <title>search</title>
    <desc>Created with Sketch.</desc>
    <defs></defs>
    <g id="InnerPages---Design-3" stroke="none" stroke-width="1" fill="none" fill-rule="evenodd">
        <g id="3-1-2-Menu@2x" transform="translate(-1282.000000, -582.000000)" fill="#000000" fill-rule="nonzero">
            <g id="search" transform="translate(1282.000000, 582.000000)">
                <path d="M14.7868852,29.5737705 C18.3934426,29.5737705 21.6721311,28.295082 24.2295082,26.1311475 L35.704918,37.6065574 C35.9672131,37.8688525 36.295082,38 36.6557377,38 C37.0163934,38 37.3442623,37.8688525 37.6065574,37.6065574 C38.1311475,37.0819672 38.1311475,36.2295082 37.6065574,35.704918 L26.1311475,24.2295082 C28.2622951,21.6721311 29.5737705,18.3606557 29.5737705,14.7868852 C29.5737705,6.62295082 22.9508197,0 14.7868852,0 C6.6557377,-2.32964831e-15 0,6.6557377 0,14.7868852 C0,22.9508197 6.6557377,29.5737705 14.7868852,29.5737705 Z M14.7868852,2.68852459 C21.4754098,2.68852459 26.8852459,8.13114754 26.8852459,14.7868852 C26.8852459,21.4754098 21.4754098,26.8852459 14.7868852,26.8852459 C8.09836066,26.8852459 2.68852459,21.442623 2.68852459,14.7868852 C2.68852459,8.13114754 8.13114754,2.68852459 14.7868852,2.68852459 Z" id="Shape"></path>
            </g>
        </g>
    </g>
</svg>